<svg xmlns="http://www.w3.org/2000/svg" width="704.14" height="122.198"><g aria-label="A LABS" style="font-size:170.667px;line-height:1.25;font-family:&quot;Roboto Mono&quot;;-inkscape-font-specification:&quot;Roboto Mono&quot;;letter-spacing:20px;fill:#000"><path d="M110.45 145.57H65.733l-10.58 27.818H30.576L77.34 53.921H87.92q11.094 0 15.019 10.24l42.496 109.227H120.86Zm-38.4-19.798h32.085L88.263 82.764h-.171zM262.364 173.388q-7.51 0-12.117-4.267-4.438-4.437-4.438-11.605V53.921h23.552v98.987h64.854v20.48zM436.116 145.57h-44.714l-10.582 27.818h-24.576l46.763-119.467h10.581q11.094 0 15.02 10.24l42.495 109.227h-24.576Zm-38.4-19.798h32.086L413.93 82.764h-.17zM518.031 173.388q-7.338 0-11.946-4.437-4.608-4.438-4.608-11.606V53.921h59.392q16.213 0 25.941 7.68 9.899 7.68 9.899 20.65v8.534q0 5.632-2.902 10.752-2.73 5.12-7.85 8.363v.17q8.192 2.902 13.141 9.387 5.12 6.486 5.12 14.507v8.875q0 13.994-10.24 22.357-10.07 8.192-27.307 8.192zm42.838-69.973q5.461 0 8.874-3.414 3.414-3.584 3.414-9.386v-5.803q0-4.779-3.584-7.51-3.584-2.9-9.558-2.9H525.03v29.013zm4.096 49.493q7.509 0 11.605-2.901 4.096-3.072 4.096-8.534v-7.509q0-4.95-3.584-8.021-3.584-3.072-9.557-3.072h-42.496v30.037zM674.983 174.753q-18.773 0-29.354-10.41-10.582-10.582-10.582-29.355h23.211q0 8.875 4.437 13.995 4.608 4.949 12.63 4.949h18.944q7.51 0 12.117-3.072 4.779-3.243 4.779-8.533v-5.803q0-8.363-12.288-10.41l-31.403-5.291q-15.36-2.56-23.381-9.728-7.85-7.34-7.85-18.603v-9.557q0-9.046 4.778-15.872 4.95-6.998 13.824-10.752 9.045-3.755 20.821-3.755h19.286q11.093 0 19.626 4.608 8.534 4.608 13.142 12.97 4.778 8.193 4.778 19.115h-23.21q0-7.168-3.926-11.434-3.925-4.438-10.41-4.438h-19.286q-7.168 0-11.605 3.072-4.267 3.072-4.267 8.192v4.608q0 8.534 11.776 10.582l31.232 5.461q15.53 2.73 23.723 9.728 8.192 6.827 8.192 17.75v11.263q0 9.046-5.12 16.043-4.95 6.997-13.995 10.923-9.045 3.754-20.992 3.754z" style="font-weight:700;font-family:&quot;Bai Jamjuree&quot;;-inkscape-font-specification:&quot;Bai Jamjuree Bold&quot;;fill:#000" transform="translate(-30.577 -52.556)"/></g></svg>